<?xml version="1.0" encoding="utf-8"?>
<!-- Generator: Adobe Illustrator 16.0.0, SVG Export Plug-In . SVG Version: 6.00 Build 0)  -->
<!DOCTYPE svg PUBLIC "-//W3C//DTD SVG 1.1//EN" "http://www.w3.org/Graphics/SVG/1.1/DTD/svg11.dtd">
<svg version="1.1" id="health" xmlns="http://www.w3.org/2000/svg" xmlns:xlink="http://www.w3.org/1999/xlink" x="0px" y="0px"
	 width="700px" height="700px" viewBox="0 0 700 700" enable-background="new 0 0 700 700" xml:space="preserve">
<g>
	
		<polyline id="Done__x2014__Displayed_on_the_left_side_of_a_contextual_action_bar__x28_CAB_x29__to_allow_the_user_to_dismiss_it._2_" fill="none" stroke="#33FF00" stroke-width="33" stroke-miterlimit="10" points="
		619.333,163.333 327.667,443.333 199.333,315 	"/>
	<path d="M581.417,379.166C566.833,492.917,467.667,583.333,351,583.333c-128.333,0-233.333-105-233.333-233.333
		c0-128.333,105-233.333,233.333-233.333c40.833,0,78.75,11.667,113.75,29.167l43.75-43.75c-46.667-26.25-99.167-43.75-157.5-43.75
		C190.583,58.333,59.333,189.583,59.333,350c0,160.417,131.25,291.667,291.667,291.667c151.667,0,274.167-113.75,288.75-262.501
		H581.417z"/>
</g>
</svg>
