<?xml version="1.0" encoding="utf-8"?>
<!-- Generator: Adobe Illustrator 16.0.0, SVG Export Plug-In . SVG Version: 6.00 Build 0)  -->
<!DOCTYPE svg PUBLIC "-//W3C//DTD SVG 1.1//EN" "http://www.w3.org/Graphics/SVG/1.1/DTD/svg11.dtd">
<svg version="1.1" id="exoticpets" xmlns="http://www.w3.org/2000/svg" xmlns:xlink="http://www.w3.org/1999/xlink" x="0px" y="0px"
	 width="700px" height="700px" viewBox="0 0 700 700" enable-background="new 0 0 700 700" xml:space="preserve">
<circle fill="none" cx="350" cy="350" r="350"/>
<path display="none" fill="#FFFFFF" d="M311.244,164.354c1.675,1.196,3.589,2.153,5.263,3.11
	c13.876,7.417,29.665,10.766,45.216,11.723c16.746,0.957,33.971-0.718,50.479-4.306c11.483-2.392,24.88-6.22,35.406-11.483
	c6.46-3.11,13.158-6.22,19.617-9.809c5.024-2.871,9.569-6.22,12.68-11.244c5.023-8.374,3.589-19.139,1.675-28.23
	c-2.393-11.483-18.421-18.421-27.99-22.249c-16.029-5.981-33.732-10.048-50.479-13.397c-15.312-2.871-30.861-5.263-46.412-6.698
	c-5.98-0.479-12.2-1.196-18.421-1.196c-4.066-0.239-8.612-0.239-12.68,0.239c-30.382,3.828-57.177,16.268-77.272,39.713
	c-31.818,37.081-39.234,91.388-33.971,138.277c3.349,29.426,11.723,59.569,25.12,85.885c11.244,21.77,27.751,43.541,49.282,56.22
	c86.842,0,173.445,0,260.287,0c11.483,0,21.292-5.024,28.229-14.114c6.699-9.331,8.612-20.096,5.264-31.101
	c-5.503-17.704-21.292-32.058-43.302-32.058H368.421c-6.938,0-13.875-1.435-20.096-4.306c-22.488-9.809-36.842-34.928-44.258-57.416
	c-5.742-17.464-9.091-38.278-6.938-56.699C298.325,185.167,301.914,170.813,311.244,164.354L311.244,164.354z M201.914,493.062
	c-23.685,21.531-27.991,56.22-24.402,89.234c0.957,8.134,3.828,19.378,12.918,21.771c9.33,2.392,17.464-5.981,22.488-12.68
	c8.134-11.005,16.268-22.249,24.402-33.254c7.655-10.048,15.55-19.617,24.641-28.469c21.531-20.813,45.215-31.579,73.444-36.842
	H201.914V493.062z M226.077,350.718c8.373,14.593,18.66,28.708,30.861,40.431h-29.187c-4.306,0-7.655,3.588-7.655,7.655
	c0,4.307,3.588,7.655,7.655,7.655H546.89c9.809,0,18.66,4.067,25.12,10.526c6.459,6.46,10.526,15.312,10.526,25.12l0,0
	c0,9.809-4.067,18.66-10.526,25.119c-6.46,6.46-15.312,10.526-25.12,10.526H222.01c-12.68,0-23.685-2.153-33.015-6.22
	c-12.679-5.264-22.249-13.397-28.947-23.206c-6.459-9.569-9.809-20.813-9.809-32.058c0-7.177,1.436-14.354,4.306-21.291
	c5.263-12.68,15.79-23.445,31.579-31.58C196.89,357.655,210.287,353.35,226.077,350.718z M365.55,107.655
	c0-4.545,6.221-8.373,13.876-8.373s13.876,3.828,13.876,8.373c0,4.546-6.221,8.374-13.876,8.374
	C371.771,115.79,365.55,112.201,365.55,107.655z"/>
<path fill="#241F20" d="M588.478,155.971h-100.67c0.132-19.721,0.388-69.411-0.048-75.629c-0.573-7.792-1.391-14.47-11.698-24.214
	c-10.307-9.74-26.717-8.076-26.717-8.076s-196.575-0.417-209.311,0c-12.738,0.42-20.665,4.591-27.549,13.568
	c-6.886,8.982-6.472,19.207-6.472,19.207v75.151H105.531c-7.124,0-12.918,5.928-12.918,13.242v374.958
	c0,7.338,5.795,13.253,12.918,13.253h482.947c7.146,0,12.91-5.915,12.91-13.253V169.211
	C601.388,161.898,595.623,155.971,588.478,155.971z M246.089,95.433c0-9.39,10.859-7.307,10.859-7.307s174.316,0,182.672,0
	s8.061,8.352,8.061,8.352v59.493H246.089C246.089,139.468,246.089,102.678,246.089,95.433z M574.695,517.253
	c0,6.287-5.139,11.41-11.504,11.41H132.503c-6.335,0-11.508-5.123-11.508-11.41V194.638c0-6.288,5.166-11.392,11.508-11.392h430.688
	c6.365,0,11.504,5.104,11.504,11.392V517.253z"/>
<path fill="#231E1F" stroke="#FF0000" stroke-width="5" stroke-miterlimit="10" d="M455.004,304.259h-40.576
	c-13.407,0-14.52-11.089-14.582-14.035v-41.015c0-7.338-5.892-13.358-13.361-13.358h-78.952c-7.49,0-13.358,6.02-13.358,13.358
	v40.505c-0.047,3.146-0.828,14.544-9.988,14.544h-45.193c-7.334,0-13.358,6.001-13.358,13.362v79.083
	c0,7.338,6.024,13.361,13.358,13.361h40.766c5.025,0.319,14.416,2.613,14.416,15.321v39.846c0,7.354,5.869,13.354,13.358,13.354
	h78.952c7.47,0,13.361-6.001,13.361-13.354v-34.419c0-19.043,13.682-20.669,17.257-20.74h37.901c7.37,0,13.372-6.023,13.372-13.353
	v-79.094C468.376,310.261,462.374,304.259,455.004,304.259z M441.633,387.261h-31.387c-0.451,0.085-0.839,0.256-1.282,0.256H394.22
	c-6.034,0.499-16.854,3.81-16.854,21.782v43.917h-60.657v-34.045v-9.858c0-17.986-11.31-21.297-17.575-21.788h-14.065
	c-0.229,0-0.413-0.1-0.641-0.131h-34.692v-60.53h35.325h6.211h11.683c12.6,0,13.677-12.306,13.739-15.384v-0.7v-3.667h-0.023
	v-46.761h60.651v34.937v8.612c0,0-0.863,22.963,19.788,22.963h5.559h6.289h32.662v60.397H441.633z"/>
</svg>
