<?xml version="1.0" encoding="utf-8"?>
<!-- Generator: Adobe Illustrator 16.0.0, SVG Export Plug-In . SVG Version: 6.00 Build 0)  -->
<!DOCTYPE svg PUBLIC "-//W3C//DTD SVG 1.1//EN" "http://www.w3.org/Graphics/SVG/1.1/DTD/svg11.dtd">
<svg version="1.1" id="grooming" xmlns="http://www.w3.org/2000/svg" xmlns:xlink="http://www.w3.org/1999/xlink" x="0px" y="0px"
	 width="700px" height="700px" viewBox="0 0 700 700" enable-background="new 0 0 700 700" xml:space="preserve">
<circle fill="none" cx="350" cy="350" r="350"/>
<g>
	<path fill="#00FF33" stroke="#000000" stroke-width="7" stroke-miterlimit="10" d="M438.23,233.462L349.848,394.17l-59.332-103.837
		h16.082l35.181,61.573l8.475,14.818l8.096-15.033l63.664-118.237h16.217 M454.262,223.983h-37.914L350,347.204l-37.914-66.35
		h-37.912L350,413.551L454.262,223.983L454.262,223.983z"/>
	<polygon fill="#37474F" stroke="#000000" stroke-width="7" stroke-miterlimit="10" points="435.308,278.115 435.308,423.02 
		264.695,423.02 264.695,261.889 385.172,261.889 390.275,252.411 255.216,252.411 255.216,432.5 444.781,432.5 444.781,260.885 	
		"/>
	<path fill="#37474F" stroke="#000000" stroke-width="7" stroke-miterlimit="10" d="M302.608,129.201h-37.913
		c-8.238,0-16.505,3.971-20.957,9.479h-64.35v312.784l104.263,104.264h236.96V138.679h-64.35
		c-4.454-5.508-12.719-9.479-20.954-9.479h-37.917v-9.478v-9.479h-10.736c-8.109-9.414-12.512-9.498-12.977-18.768
		c0-0.064,0.017-0.133,0.017-0.189c0-13.071-10.624-23.696-23.695-23.696c-11.713,0-21.401,8.571-23.297,19.752
		c-0.208,1.291-0.4,2.588-0.4,3.944c0,0.056,0.018,0.125,0.018,0.189c-0.46,9.28-4.871,9.354-12.977,18.768h-10.735v9.479V129.201z
		 M274.174,532.846l-71.904-71.902h71.904V532.846z M459.942,148.157h51.189V546.25H283.651v-94.787h-94.784V148.157h50.822
		c-1.981,8.181-3.429,18.957-3.429,18.957h227.482L459.942,148.157z M335.802,91.467v-0.333c0-0.551,0.097-1.07,0.159-1.611
		c0.065-0.445,0.084-0.889,0.191-1.328h-0.011c1.423-6.359,7.093-11.136,13.868-11.136c7.709,0,13.949,6.152,14.182,13.801
		l-0.021,0.073l0.029,0.607c-0.164,7.724-6.461,13.963-14.2,13.963C342.229,105.505,335.899,99.22,335.802,91.467L335.802,91.467z
		 M312.086,138.679v-18.957h3.429h2.171l2.847-3.299c2.198-2.561,4.122-4.352,5.797-5.926c1.662-1.541,3.33-3.104,4.804-5.03
		c4.334,5.734,11.14,9.514,18.865,9.514c7.718,0,14.533-3.762,18.847-9.496c1.479,1.898,3.164,3.461,4.822,5.012
		c1.682,1.574,3.601,3.365,5.804,5.926l2.84,3.299h2.175h3.427v18.957h47.394c6.978,0,13.16,4.285,14.548,7.345l2.314,11.61H247.375
		c0.76-4.152,1.689-8.426,2.609-11.222c1.025-3.068,7.42-7.733,14.71-7.733H312.086z"/>
	<path fill="#37474F" stroke="#000000" stroke-width="7" stroke-miterlimit="10" d="M530.09,110.244H406.869v9.479H530.09
		c5.228,0,9.477,4.257,9.477,9.478v426.526c0,5.223-4.249,9.48-9.477,9.48H169.91c-5.229,0-9.478-4.258-9.478-9.48V129.201
		c0-5.221,4.249-9.478,9.478-9.478h123.22v-9.479H169.91c-10.427,0-18.957,8.53-18.957,18.957v426.526
		c0,10.434,8.529,18.957,18.957,18.957h360.18c10.423,0,18.956-8.523,18.956-18.957V129.201
		C549.046,118.774,540.513,110.244,530.09,110.244z"/>
</g>
</svg>
