<?xml version="1.0" encoding="utf-8"?>
<!-- Generator: Adobe Illustrator 16.0.0, SVG Export Plug-In . SVG Version: 6.00 Build 0)  -->
<!DOCTYPE svg PUBLIC "-//W3C//DTD SVG 1.1//EN" "http://www.w3.org/Graphics/SVG/1.1/DTD/svg11.dtd">
<svg version="1.1" id="pestcontrol" xmlns="http://www.w3.org/2000/svg" xmlns:xlink="http://www.w3.org/1999/xlink" x="0px"
	 y="0px" width="700px" height="700px" viewBox="0 0 700 700" enable-background="new 0 0 700 700" xml:space="preserve">
<g>
	<path fill="#5E889E" d="M592.58,63.566H113.774c-14.638,0-26.601,11.978-26.601,26.604c0,14.629,11.959,26.597,26.598,26.597h6.167
		v263.346c0,19.068,15.515,34.582,34.588,34.582h397.29c19.064,0,34.58-15.514,34.58-34.582V116.77h6.183
		c14.622,0,26.602-11.969,26.602-26.598C619.182,75.544,607.202,63.566,592.58,63.566z M554.47,380.116
		c0,1.419-1.229,2.663-2.649,2.663H154.53c-1.438,0-2.67-1.244-2.67-2.663V116.77h402.61V380.116L554.47,380.116z"/>
	<path fill="#5E889E" d="M487.427,167.062c-14.605,0-26.505,11.879-26.505,26.486c0,5.566,1.726,10.766,4.677,15.007l-61.3,70.559
		c-3.534-1.784-7.54-2.771-11.779-2.771c-4.68,0-9.045,1.213-12.855,3.338l-27.609-29.041c2.54-4.073,4.032-8.878,4.032-14.037
		c0-14.612-11.878-26.498-26.491-26.498c-14.604,0-26.49,11.885-26.49,26.498c0,2.613,0.37,5.094,1.057,7.477L237.5,283.986
		c-4.764-4.738-11.328-7.645-18.581-7.645c-14.596,0-26.496,11.879-26.496,26.486c0,14.604,11.9,26.483,26.496,26.483
		c14.604,0,26.497-11.879,26.497-26.483c0-2.618-0.368-5.101-1.096-7.487l66.708-39.898c4.754,4.737,11.318,7.645,18.564,7.645
		c4.668,0,9.04-1.228,12.85-3.343l27.58,29.039c-2.549,4.072-4.004,8.876-4.004,14.044c0,14.604,11.862,26.483,26.497,26.483
		c14.597,0,26.485-11.879,26.485-26.483c0-5.599-1.75-10.766-4.7-15.031l61.289-70.536c3.548,1.783,7.587,2.782,11.83,2.782
		c14.598,0,26.494-11.89,26.494-26.497C513.915,178.939,502.019,167.062,487.427,167.062z M232.174,302.828
		c0,7.283-5.928,13.24-13.254,13.24c-7.309,0-13.253-5.957-13.253-13.24c0-7.315,5.945-13.243,13.253-13.243
		c2.356,0,4.549,0.593,6.423,1.652c4.002,2.219,6.717,6.455,6.831,11.358V302.828z M329.594,249.848
		c-2.345,0-4.56-0.604-6.456-1.653c-4.003-2.256-6.73-6.532-6.793-11.398v-0.193c0-7.32,5.934-13.249,13.249-13.249
		c7.292,0,13.248,5.929,13.248,13.249c0,1.282-0.198,2.577-0.565,3.769c-1.322,4.475-5.006,8.012-9.607,9.108
		C331.671,249.713,330.658,249.848,329.594,249.848z M405.764,302.828c0,7.283-5.969,13.24-13.244,13.24
		c-7.319,0-13.242-5.957-13.242-13.24c0-1.291,0.192-2.544,0.515-3.737c1.323-4.542,5.046-8.052,9.636-9.144
		c1.006-0.226,2.026-0.362,3.095-0.362c0.854,0,1.681,0.068,2.487,0.226c4.663,0.897,8.495,4.238,10.032,8.678
		C405.499,299.842,405.764,301.305,405.764,302.828z M487.427,206.799c-0.869,0-1.729-0.101-2.521-0.237
		c-4.674-0.925-8.479-4.303-10.011-8.705c-0.466-1.363-0.716-2.823-0.716-4.312c0-7.314,5.952-13.243,13.241-13.243
		c7.315,0,13.247,5.928,13.247,13.243C500.671,200.833,494.736,206.799,487.427,206.799z"/>
	<path fill="#5E889E" d="M530.319,566.209c-4.372,0-8.426,1.315-11.81,3.561l-156.019-79.092V414.7h-18.627v75.978L187.847,569.77
		c-3.384-2.242-7.442-3.561-11.811-3.561c-11.812,0-21.392,9.588-21.392,21.399c0,11.802,9.58,21.391,21.392,21.391
		c11.811,0,21.386-9.589,21.386-21.391c0-0.6-0.041-1.186-0.08-1.766l146.521-74.283v56.812
		c-7.15,3.462-12.095,10.762-12.095,19.239c0,11.799,9.581,21.391,21.408,21.391c11.812,0,21.386-9.592,21.386-21.391
		c0-8.475-4.935-15.777-12.072-19.239v-56.818L509.01,585.84c-0.054,0.583-0.097,1.169-0.097,1.766
		c0,11.799,9.598,21.391,21.409,21.391s21.387-9.592,21.387-21.391C551.706,575.794,542.131,566.209,530.319,566.209z"/>
</g>
</svg>
