<?xml version="1.0" encoding="utf-8"?>
<!-- Generator: Adobe Illustrator 16.0.0, SVG Export Plug-In . SVG Version: 6.00 Build 0)  -->
<!DOCTYPE svg PUBLIC "-//W3C//DTD SVG 1.1//EN" "http://www.w3.org/Graphics/SVG/1.1/DTD/svg11.dtd">
<svg version="1.1" id="nutrition" xmlns="http://www.w3.org/2000/svg" xmlns:xlink="http://www.w3.org/1999/xlink" x="0px" y="0px"
	 width="700px" height="700px" viewBox="0 0 700 700" enable-background="new 0 0 700 700" xml:space="preserve">
<g>
	<path fill="#D8EAEF" d="M469.9,266.075c-7.622-80.017-78.701-142.728-165.249-142.728c-91.64,0-165.92,70.28-165.92,156.995
		c0,8.409,0.701,16.668,2.046,24.709l0,0c-57.623,6.794-102.375,57.076-102.375,118.072c0,65.622,51.816,118.836,115.735,118.836
		h424.256c46.516,0,84.2-33.651,84.2-75.183c0-37.536-30.812-68.661-71.091-74.273l0,0c0-65.644-51.569-126.589-115.49-126.589
		C473.963,265.913,471.91,265.968,469.9,266.075"/>
	<g>
		<path fill="#FFFFFF" d="M407.805,266.075c-6.526-80.017-66.672-144.004-140.578-138.717
			c-46.486,3.323-128.494,66.268-128.494,152.984c0,8.409,2.046,24.709,2.046,24.709C87.31,309.859,38.404,362.127,38.404,423.123
			c0,65.622,44.359,118.836,99.08,118.836h363.198c39.827,0,72.088-33.651,72.088-75.183c0-37.536-26.376-68.661-60.861-74.273l0,0
			c0-65.644-44.148-126.589-98.872-126.589C411.281,265.913,409.523,265.968,407.805,266.075
			c-28.982,1.822-54.664,18.56-71.807,43.938"/>
		<path fill="none" stroke="#354F65" stroke-width="13" stroke-linecap="round" stroke-linejoin="round" stroke-miterlimit="10" d="
			M578.396,541.959c46.517,0,84.2-33.651,84.2-75.183c0-37.536-30.811-68.661-71.09-74.273l0,0
			c0-65.644-57.687-126.427-121.604-126.427c-2.054,0,2.01-0.106,0,0c-33.854,1.823-63.853,18.56-83.879,43.938"/>
		<path fill="none" stroke="#354F65" stroke-width="13" stroke-linecap="round" stroke-linejoin="round" stroke-miterlimit="10" d="
			M469.9,266.075c-7.622-80.017-78.701-142.728-165.249-142.728c-91.64,0-165.92,70.28-165.92,156.995
			c0,8.409,0.701,16.668,2.046,24.709l0,0c-57.623,6.794-102.375,57.076-102.375,118.072c0,65.622,51.816,118.836,115.735,118.836
			h424.256"/>
	</g>
</g>
</svg>
