<?xml version="1.0" encoding="utf-8"?>
<!-- Generator: Adobe Illustrator 16.0.0, SVG Export Plug-In . SVG Version: 6.00 Build 0)  -->
<!DOCTYPE svg PUBLIC "-//W3C//DTD SVG 1.1//EN" "http://www.w3.org/Graphics/SVG/1.1/DTD/svg11.dtd">
<svg version="1.1" id="vaccination" xmlns="http://www.w3.org/2000/svg" xmlns:xlink="http://www.w3.org/1999/xlink" x="0px"
	 y="0px" width="700px" height="700px" viewBox="0 0 700 700" enable-background="new 0 0 700 700" xml:space="preserve">
<g>
	<path fill="#6A6E7C" d="M353.75,178.707c71.121,0,129.045,57.922,129.045,129.043S424.87,436.795,353.75,436.795
		c-71.121,0-129.043-57.925-129.043-129.045C224.707,236.629,282.629,178.707,353.75,178.707 M353.75,155.689
		c-83.885,0-152.061,68.176-152.061,152.061s68.286,152.061,152.061,152.061c83.775,0,152.061-68.176,152.061-152.061
		S437.525,155.689,353.75,155.689L353.75,155.689z"/>
	<path fill="#6A6E7C" d="M353.75,119.039c-6.326,0-11.454-5.127-11.454-11.453V39.953c0-6.326,5.128-11.453,11.454-11.453
		c6.327,0,11.453,5.127,11.453,11.453v67.522C365.203,113.912,360.077,119.039,353.75,119.039z"/>
	<path fill="#6A6E7C" d="M353.75,587c-6.326,0-11.454-5.126-11.454-11.453v-67.522c0-6.326,5.128-11.454,11.454-11.454
		c6.327,0,11.453,5.128,11.453,11.454v67.522C365.203,581.874,360.077,587,353.75,587z"/>
	<path fill="#6A6E7C" d="M153.476,319.203H85.953c-6.326,0-11.453-5.127-11.453-11.453s5.127-11.453,11.453-11.453h67.522
		c6.326,0,11.453,5.127,11.453,11.453C165.039,314.076,159.912,319.203,153.476,319.203z"/>
	<path fill="#6A6E7C" d="M621.547,319.203h-67.522c-6.326,0-11.454-5.127-11.454-11.453s5.128-11.453,11.454-11.453h67.522
		c6.327,0,11.453,5.127,11.453,11.453S627.874,319.203,621.547,319.203z"/>
	<path fill="#6A6E7C" d="M164.383,508.568c-2.945,0-5.891-1.09-8.181-3.381c-4.473-4.472-4.473-11.781,0-16.254l47.778-47.776
		c4.472-4.474,11.781-4.474,16.252,0c4.473,4.472,4.473,11.779,0,16.252l-47.668,47.778
		C170.274,507.479,167.328,508.568,164.383,508.568z"/>
	<path fill="#6A6E7C" d="M495.339,177.615c-2.945,0-5.891-1.09-8.181-3.382c-4.474-4.472-4.474-11.781,0-16.252l47.776-47.669
		c4.474-4.472,11.782-4.472,16.254,0s4.472,11.781,0,16.253l-47.778,47.779C501.229,176.524,498.283,177.615,495.339,177.615z"/>
	<path fill="#6A6E7C" d="M543.116,508.568c-2.943,0-5.891-1.09-8.182-3.381l-47.776-47.778c-4.474-4.473-4.474-11.78,0-16.252
		c4.473-4.474,11.779-4.474,16.252,0l47.778,47.776c4.472,4.473,4.472,11.782,0,16.254
		C549.007,507.479,546.062,508.568,543.116,508.568z"/>
	<path fill="#6A6E7C" d="M212.162,177.615c-2.945,0-5.891-1.09-8.181-3.382l-47.669-47.669c-4.472-4.472-4.472-11.78,0-16.253
		s11.781-4.472,16.253,0l47.778,47.778c4.472,4.473,4.472,11.781,0,16.253C218.052,176.524,215.106,177.615,212.162,177.615z"/>
</g>
</svg>
